<!--?xml version="1.0" standalone="no"?-->
              <svg id="sw-js-blob-svg" viewBox="0 0 100 100" xmlns="http://www.w3.org/2000/svg" version="1.1">
                    <defs> 
                        <linearGradient id="sw-gradient" x1="0" x2="1" y1="1" y2="0">
                            <stop id="stop1" stop-color="rgba(255, 0, 40, 1)" offset="0%"></stop>
                            <stop id="stop2" stop-color="rgba(255, 0, 40, 1)" offset="100%"></stop>
                        </linearGradient>
                    </defs>
                <path fill="url(#sw-gradient)" d="M24.5,-28.5C30.3,-24.3,32.7,-15.2,33,-6.8C33.2,1.6,31.4,9.3,27.3,15.4C23.3,21.5,17.2,25.9,9.8,29.9C2.3,34,-6.4,37.7,-14.6,36.3C-22.8,35,-30.6,28.5,-33.7,20.7C-36.8,12.8,-35.3,3.4,-33,-5.1C-30.6,-13.5,-27.3,-21.1,-21.6,-25.3C-16,-29.6,-8,-30.6,0.7,-31.4C9.3,-32.2,18.7,-32.8,24.5,-28.5Z" width="100%" height="100%" transform="translate(50 50)" style="transition: all 0.3s ease 0s;" stroke-width="0" stroke="url(#sw-gradient)"></path>
              </svg>