<?xml version="1.0" encoding="UTF-8"?>
<svg id="Layer_1" data-name="Layer 1" xmlns="http://www.w3.org/2000/svg" viewBox="0 0 226.13 288.23">
  <defs>
    <style>
      .cls-1 {
        font-family: ArialRoundedMTBold, 'Arial Rounded MT Bold';
        font-size: 24px;
      }

      .cls-1, .cls-2 {
        fill: #fff;
      }

      .cls-2 {
        stroke-width: 0px;
      }
    </style>
  </defs>
  <g>
    <path class="cls-2" d="m57.1,66.2c-.6.3-2,.7-3.7.7-4.5,0-7.2-2.8-7.2-7.1,0-4.7,3.2-7.5,7.6-7.5,1.7,0,2.9.4,3.4.6l-.6,2.1c-.7-.3-1.6-.5-2.8-.5-2.9,0-5,1.8-5,5.2,0,3.1,1.8,5.1,4.9,5.1,1,0,2.1-.2,2.8-.5l.6,1.9Z"/>
    <polygon class="cls-2" points="67.3 60.4 61.9 60.4 61.9 64.5 67.9 64.5 67.9 66.6 59.3 66.6 59.3 52.5 67.6 52.5 67.6 54.6 61.9 54.6 61.9 58.3 67.3 58.3 67.3 60.4"/>
    <path class="cls-2" d="m70.2,52.7c1-.2,2.4-.3,3.9-.3,2,0,3.4.3,4.4,1.1.8.7,1.2,1.6,1.2,2.8,0,1.8-1.2,3.1-2.6,3.5v.1c1,.4,1.6,1.4,2,2.7.4,1.8.8,3.4,1.1,3.9h-2.7c-.2-.4-.5-1.6-.9-3.3-.4-1.8-1.1-2.4-2.5-2.5h-1.3v5.9h-2.6v-13.9Zm2.5,6.2h1.5c1.7,0,2.8-.9,2.8-2.3,0-1.6-1.1-2.3-2.8-2.3-.8,0-1.3.1-1.6.1.1.1.1,4.5.1,4.5Z"/>
    <polygon class="cls-2" points="84.9 54.6 80.9 54.6 80.9 52.5 91.6 52.5 91.6 54.6 87.5 54.6 87.5 66.6 84.9 66.6 84.9 54.6"/>
    <rect class="cls-2" x="93.2" y="52.5" width="2.6" height="14.2"/>
    <polygon class="cls-2" points="98.8 52.5 106.9 52.5 106.9 54.6 101.4 54.6 101.4 58.5 106.6 58.5 106.6 60.6 101.4 60.6 101.4 66.6 98.8 66.6 98.8 52.5"/>
    <rect class="cls-2" x="109.5" y="52.5" width="2.6" height="14.2"/>
    <path class="cls-2" d="m125.1,66.2c-.6.3-2,.7-3.7.7-4.5,0-7.2-2.8-7.2-7.1,0-4.7,3.2-7.5,7.6-7.5,1.7,0,2.9.4,3.4.6l-.6,2.1c-.7-.3-1.6-.5-2.8-.5-2.9,0-5,1.8-5,5.2,0,3.1,1.8,5.1,4.9,5.1,1.1,0,2.1-.2,2.8-.5l.6,1.9Z"/>
    <path class="cls-2" d="m130.3,62.6l-1.2,4h-2.7l4.5-14.2h3.3l4.6,14.2h-2.8l-1.3-4h-4.4Zm4.1-1.9l-1.1-3.5c-.3-.9-.5-1.8-.7-2.6h0c-.2.8-.4,1.8-.7,2.6l-1.1,3.5h3.6Z"/>
    <polygon class="cls-2" points="141.9 54.6 137.8 54.6 137.8 52.5 148.5 52.5 148.5 54.6 144.4 54.6 144.4 66.6 141.9 66.6 141.9 54.6"/>
    <polygon class="cls-2" points="158.1 60.4 152.8 60.4 152.8 64.5 158.7 64.5 158.7 66.6 150.2 66.6 150.2 52.5 158.4 52.5 158.4 54.6 152.8 54.6 152.8 58.3 158.1 58.3 158.1 60.4"/>
    <path class="cls-2" d="m174.6,60.4c0,3.5-2.4,6.4-5.9,6.4-2.6,0-4.2-1.8-4.2-4.2,0-3.5,2.4-6.5,5.9-6.5,2.8.1,4.2,2.1,4.2,4.3m-7.6,2.2c0,1.4.8,2.4,2,2.4,1.8,0,3-2.5,3-4.6,0-1-.5-2.4-2-2.4-1.8.1-3,2.7-3,4.6"/>
    <path class="cls-2" d="m176,66.6l1.6-8.3h-1.3l.4-1.9h1.3l.1-.5c.2-1.3.7-2.6,1.7-3.4.8-.7,1.7-.9,2.7-.9.7,0,1.2.1,1.5.3l-.5,1.9c-.3-.1-.6-.2-1-.2-1.2,0-1.8,1.1-2,2.4l-.1.5h2.1l-.4,1.9h-2.1l-1.6,8.3c0-.1-2.4-.1-2.4-.1Z"/>
    <polygon class="cls-2" points="44 84.2 36.3 84.2 36.3 90.2 45 90.2 45 93.3 32.5 93.3 32.5 72.7 44.5 72.7 44.5 75.8 36.3 75.8 36.3 81.1 44 81.1 44 84.2"/>
    <path class="cls-2" d="m59.3,93.3l-2.3-4.1c-.9-1.6-1.5-2.7-2-3.9h-.1c-.5,1.2-1,2.3-1.9,3.9l-2,4.1h-4.3l6.1-10.4-5.9-10.2h4.3l2.2,4.2c.7,1.3,1.2,2.3,1.7,3.4h.1c.5-1.3,1-2.2,1.6-3.4l2.2-4.2h4.3l-6,10,6.3,10.5-4.3.1h0Z"/>
    <path class="cls-2" d="m80.1,92.7c-.9.5-2.8.9-5.3.9-6.5,0-10.5-4.1-10.5-10.4,0-6.8,4.7-10.9,11-10.9,2.5,0,4.2.5,5,.9l-.8,3c-1-.4-2.3-.8-4-.8-4.2,0-7.2,2.6-7.2,7.6,0,4.5,2.7,7.4,7.2,7.4,1.5,0,3.1-.3,4.1-.8l.5,3.1Z"/>
    <polygon class="cls-2" points="94.8 84.2 87 84.2 87 90.2 95.7 90.2 95.7 93.3 83.3 93.3 83.3 72.7 95.2 72.7 95.2 75.8 87 75.8 87 81.1 94.8 81.1 94.8 84.2"/>
    <polygon class="cls-2" points="99 72.7 102.7 72.7 102.7 90.2 111.2 90.2 111.2 93.3 99 93.3 99 72.7"/>
    <polygon class="cls-2" points="114 72.7 117.8 72.7 117.8 90.2 126.2 90.2 126.2 93.3 114 93.3 114 72.7"/>
    <polygon class="cls-2" points="140.5 84.2 132.8 84.2 132.8 90.2 141.5 90.2 141.5 93.3 129 93.3 129 72.7 141 72.7 141 75.8 132.8 75.8 132.8 81.1 140.5 81.1 140.5 84.2"/>
    <path class="cls-2" d="m144.8,93.3v-20.6h4.3l5.3,8.8c1.4,2.3,2.6,4.7,3.5,6.9h.1c-.2-2.7-.3-5.4-.3-8.5v-7.2h3.5v20.6h-3.9l-5.4-9.1c-1.3-2.2-2.7-4.8-3.7-7.1h-.1c.2,2.7.2,5.4.2,8.8v7.3c-.1.1-3.5.1-3.5.1Z"/>
    <path class="cls-2" d="m180.1,92.7c-.9.5-2.8.9-5.3.9-6.5,0-10.5-4.1-10.5-10.4,0-6.8,4.7-10.9,11-10.9,2.5,0,4.2.5,5,.9l-.8,3c-1-.4-2.3-.8-4-.8-4.2,0-7.2,2.6-7.2,7.6,0,4.5,2.7,7.4,7.2,7.4,1.5,0,3.1-.3,4.1-.8l.5,3.1Z"/>
    <polygon class="cls-2" points="194.8 84.2 187.1 84.2 187.1 90.2 195.7 90.2 195.7 93.3 183.3 93.3 183.3 72.7 195.3 72.7 195.3 75.8 187.1 75.8 187.1 81.1 194.8 81.1 194.8 84.2"/>
  </g>
  <path class="cls-2" d="m84.5,143.6c-2.6,0-4.7,2.1-4.7,4.7s2.1,4.7,4.7,4.7,4.7-2.1,4.7-4.7c-.1-2.6-2.2-4.7-4.7-4.7"/>
  <path class="cls-2" d="m142.1,143.6c-2.6,0-4.7,2.1-4.7,4.7s2.1,4.7,4.7,4.7,4.7-2.1,4.7-4.7-2.1-4.7-4.7-4.7"/>
  <g>
    <path class="cls-2" d="m84.5,134.2c-7.7,0-13.9,6.2-13.9,13.9s6.2,13.9,13.9,13.9,13.9-6.2,13.9-13.9-6.2-13.9-13.9-13.9m0,23.6c-5.3,0-9.6-4.3-9.6-9.6s4.3-9.6,9.6-9.6,9.6,4.3,9.6,9.6c.1,5.3-4.3,9.6-9.6,9.6m86.6-37.9h-19.2c-9.8-6.6-23.1-10.7-38.4-10.7s-29.6,4.1-39.3,10.7h-18.3c3,3.5,5.2,8.2,5.7,11.4-3.4,4.7-5.5,10.5-5.5,16.8,0,15.8,12.8,28.7,28.7,28.7,9,0,17-4.1,22.3-10.6,2.1,2.5,5.7,7.5,6.4,9,0,0,4.1-6.1,6.4-9,5.3,6.5,13.3,10.6,22.2,10.6,15.8,0,28.7-12.8,28.7-28.7,0-6.3-2-12.1-5.5-16.8.6-3.1,2.8-7.9,5.8-11.4m-86.3,51.4c-12.7,0-23.1-10.3-23.1-23.1s10.3-23.1,23.1-23.1,23.1,10.3,23.1,23.1-10.3,23.1-23.1,23.1m.1-51.8c8.2-3.6,18.4-5.5,28.6-5.5s19.6,1.9,27.8,5.5c-15.4.5-27.8,13.1-27.8,28.6,0-15.7-12.8-28.5-28.6-28.6m57.3,51.8c-12.8,0-23.1-10.3-23.1-23.1s10.3-23.1,23.1-23.1,23.1,10.3,23.1,23.1-10.4,23.1-23.1,23.1m0-37.1c-7.7,0-13.9,6.2-13.9,13.9s6.2,13.9,13.9,13.9,13.9-6.2,13.9-13.9c0-7.7-6.2-13.9-13.9-13.9m0,23.5c-5.3,0-9.6-4.3-9.6-9.6s4.3-9.6,9.6-9.6,9.6,4.3,9.6,9.6-4.3,9.6-9.6,9.6"/>
    <path class="cls-2" d="m177.6,124.6h-.9v-3.8h1.4c.7,0,1.5.1,1.5,1.1,0,.5-.2.9-.8,1l.9,1.7h-1l-.8-1.6h-.3v1.6h0Zm0-2.2h.7c.3-.1.3-.3.3-.5,0-.3-.1-.4-.3-.5h-.8v1h.1Z"/>
    <path class="cls-2" d="m178.2,119.3c-1.9,0-3.5,1.6-3.5,3.5s1.6,3.5,3.5,3.5,3.5-1.5,3.5-3.5c-.1-1.9-1.6-3.5-3.5-3.5m0,6.3c-1.6,0-2.8-1.3-2.8-2.8,0-1.6,1.3-2.8,2.8-2.8,1.6,0,2.8,1.3,2.8,2.8,0,1.6-1.3,2.8-2.8,2.8"/>
  </g>
  <g>
    <path class="cls-2" d="m35,203.4v-3.1h-5.1v-4.7l-3.9,1.2v3.5h-3v3.1h3v10.1c0,4.5,1.8,6.8,5.4,6.8,1.3,0,2.4-.2,3.4-.5h.1l-.2-3.1-.2.1c-.5.2-1.2.2-2.1.2s-1.5-.3-1.9-.8c-.4-.6-.6-1.5-.6-2.8v-9.8l5.1-.2h0Z"/>
    <path class="cls-2" d="m48.6,199.9c-.4-.1-.8-.1-1-.1-1.2,0-2.3.4-3.4,1.2-.9.6-1.5,1.5-2,2.6l-.2-3.3h-3.6v.2c.1,1.6.2,3.6.2,6.1v13.3h4v-10.3c0-1.9.5-3.3,1.4-4.4.9-1,2-1.5,3.3-1.5.5,0,.9,0,1.2.1h.2v-3.8l-.1-.1Z"/>
    <rect class="cls-2" x="52.2" y="200.3" width="4" height="19.5"/>
    <path class="cls-2" d="m54.2,197.1c.8,0,1.4-.2,1.8-.7.5-.5.7-1.1.7-1.8s-.2-1.3-.7-1.8-1.1-.7-1.8-.7-1.4.2-1.8.7c-.5.5-.7,1.1-.7,1.8s.2,1.3.7,1.8c.5.4,1.1.7,1.8.7"/>
    <path class="cls-2" d="m75.8,202.5c-1.6-1.9-3.6-2.8-5.9-2.8-2.9,0-5.1,1.1-6.6,3.3l-.2-2.9h-3.7v.3c.1,1.6.1,3.7.1,6.3v21h4v-10c.6.7,1.3,1.3,2.1,1.8,1.1.5,2.3.8,3.5.8,2.5,0,4.7-1,6.3-2.9,1.7-1.9,2.5-4.5,2.5-7.7.3-2.9-.5-5.3-2.1-7.2m-9.9,1.6c.9-.6,1.8-.9,2.8-.9,1.6,0,2.9.6,3.8,1.9,1,1.3,1.5,2.9,1.5,4.8,0,2.2-.5,3.9-1.5,5.2s-2.3,1.9-4,1.9c-1.4,0-2.6-.5-3.5-1.5-1-1-1.5-2.2-1.5-3.7v-3.2c0-.6.2-1.3.5-2.2.5-.9,1.1-1.7,1.9-2.3"/>
  </g>
  <g>
    <path class="cls-2" d="m201.3,204h-.9v-3.8h1.4c.7,0,1.5.1,1.5,1.1,0,.5-.2.8-.8,1l.9,1.7h-1l-.8-1.6h-.3v1.6h0Zm0-2.2h.7c.3-.1.3-.3.3-.5,0-.3-.1-.4-.3-.5h-.8l.1,1h0Z"/>
    <path class="cls-2" d="m201.9,198.7c-1.9,0-3.5,1.5-3.5,3.5s1.6,3.5,3.5,3.5,3.5-1.6,3.5-3.5-1.6-3.5-3.5-3.5m0,6.3c-1.6,0-2.8-1.3-2.8-2.8,0-1.6,1.3-2.8,2.8-2.8,1.6,0,2.8,1.3,2.8,2.8s-1.2,2.8-2.8,2.8"/>
    <path class="cls-2" d="m96.1,219.6c-.2-1.1-.3-2.7-.3-4.6v-7c0-2.6-.7-4.7-2-6.1-1.3-1.4-3.3-2.1-5.8-2.1s-4.8.6-6.7,1.8l-.1.1.9,2.7.2-.1c1.5-1,3.2-1.4,5.2-1.4,1.4,0,2.5.4,3.2,1.1.7.7,1.1,1.8,1.1,3.1v.2c-3.8,0-6.8.6-8.8,1.9-2.1,1.3-3.1,3.1-3.1,5.5,0,1.6.6,2.9,1.7,4s2.6,1.7,4.5,1.7c2.5,0,4.5-.9,6-2.7l.4,2.2h3.7l-.1-.3Zm-5.6-3.7c-.9.8-2.1,1.3-3.4,1.3-.9,0-1.7-.3-2.3-.8-.6-.5-.9-1.3-.9-2.3,0-1.2.6-2.2,1.7-2.9,1.2-.7,3.2-1.1,6.2-1.1v3c.1,1-.4,2-1.3,2.8"/>
    <path class="cls-2" d="m116.5,219.9v-.3c-.1-1.2-.2-2.9-.2-5v-23.5h-4v11c-.5-.6-1.2-1.2-2-1.6-1-.6-2.3-.8-3.6-.8-2.5,0-4.6,1-6.2,3-1.7,2-2.5,4.5-2.5,7.6,0,2.9.8,5.3,2.4,7.1,1.6,1.9,3.6,2.8,6,2.8,1.5,0,2.8-.3,4-1,.9-.6,1.7-1.3,2.3-2.2l.2,2.8,3.6.1h0Zm-4.2-11.6v3.1c0,1.7-.5,3-1.5,4s-2.1,1.5-3.4,1.5c-1.7,0-3-.6-3.9-1.9-.9-1.3-1.4-2.9-1.4-4.9,0-2.1.5-3.8,1.5-5.1s2.3-1.9,3.9-1.9c1.3,0,2.5.5,3.4,1.4.9,1,1.4,2.3,1.4,3.8"/>
    <path class="cls-2" d="m133,200.3s-5,10.2-5.4,11.4c-.5-1.4-5.4-11.4-5.4-11.4h-4.4l9.8,19.5,9.6-19.5h-4.2Z"/>
    <rect class="cls-2" x="139.2" y="200.3" width="4" height="19.5"/>
    <path class="cls-2" d="m141.2,197.1c.8,0,1.4-.2,1.8-.7.5-.5.7-1.1.7-1.8s-.2-1.3-.7-1.8-1.1-.7-1.8-.7-1.4.2-1.8.7c-.5.5-.7,1.1-.7,1.8s.2,1.3.7,1.8c.5.4,1.1.7,1.8.7"/>
    <path class="cls-2" d="m159.1,210.7c-.8-.9-2.2-1.7-4.1-2.4-1.5-.5-2.5-1-3-1.5-.5-.4-.7-1-.7-1.6,0-.7.3-1.3.8-1.7s1.3-.7,2.2-.7c1.4,0,2.7.4,4.1,1.1l.2.1,1-3-.1-.1c-1.4-.8-3.1-1.2-5-1.2-2.1,0-3.8.6-5.1,1.7-1.3,1.1-1.9,2.5-1.9,4.2,0,2.5,1.8,4.4,5.4,5.6,1.3.4,2.2.9,2.8,1.4.5.5.8,1.1.8,1.9s-.3,1.4-.9,1.9c-.6.5-1.5.7-2.7.7-1.6,0-3.2-.5-4.8-1.4l-.2-.1-1,3.1.1.1c1.7.9,3.6,1.4,5.7,1.4,2.3,0,4.2-.6,5.5-1.6,1.4-1.1,2.1-2.6,2.1-4.4,0-1.4-.4-2.5-1.2-3.5"/>
    <path class="cls-2" d="m178.8,202.6c-1.7-1.9-4-2.8-6.7-2.8s-5.1,1-6.9,2.8c-1.8,1.9-2.7,4.4-2.7,7.5s.9,5.4,2.6,7.2c1.8,1.9,4,2.8,6.7,2.8,1.7,0,3.4-.4,4.9-1.3,1.5-.8,2.7-2.1,3.5-3.6.8-1.6,1.2-3.4,1.2-5.5-.1-2.8-.9-5.2-2.6-7.1m-7.1,14.6c-1.6,0-2.9-.7-3.9-2s-1.6-3.1-1.6-5.1c0-2.1.5-3.8,1.5-5.2,1-1.3,2.4-2,4.1-2s3,.7,4,2c1,1.4,1.5,3.1,1.5,5,0,2.1-.5,3.9-1.6,5.2-1,1.4-2.4,2.1-4,2.1"/>
    <path class="cls-2" d="m194.8,199.9c-.4-.1-.8-.1-1-.1-1.2,0-2.3.4-3.4,1.2-.9.6-1.5,1.5-2,2.6l-.2-3.3h-3.6v.2c.1,1.6.2,3.6.2,6.1v13.3h4v-10.3c0-1.9.5-3.3,1.4-4.4.9-1,2-1.5,3.3-1.5.5,0,.9,0,1.2.1h.2v-3.8l-.1-.1Z"/>
  </g>
  <path class="cls-2" d="m3,113C3,52.3,52.3,3,112.9,3s109.9,49.3,109.9,109.9c0,28.3-10.8,54.2-28.4,73.7h4c17.1-19.8,27.4-45.5,27.4-73.7C225.8,50.6,175.1,0,112.9,0S0,50.7,0,113c0,28.1,10.3,53.9,27.4,73.7h4C13.8,167.1,3,141.3,3,113"/>
  <path class="cls-2" d="m6.2,113C6.2,54.2,54.1,6.3,112.9,6.3s106.7,47.9,106.7,106.7c0,28.5-11.3,54.5-29.6,73.7h2.1c18-19.3,29-45.2,29-73.7,0-59.7-48.5-108.2-108.2-108.2S4.7,53.3,4.7,113c0,28.4,11,54.3,29,73.7h2.1c-18.3-19.2-29.6-45.2-29.6-73.7"/>
  <text class="cls-1" transform="translate(84.98 261.51)"><tspan x="0" y="0">2022</tspan></text>
</svg>