<?xml version="1.0" encoding="UTF-8"?>
<svg id="Layer_1" data-name="Layer 1" xmlns="http://www.w3.org/2000/svg" viewBox="0 0 226.22 282.37">
  <defs>
    <style>
      .cls-1 {
        font-family: ArialRoundedMTBold, 'Arial Rounded MT Bold';
        font-size: 24px;
      }

      .cls-1, .cls-2 {
        fill: #fff;
      }

      .cls-2 {
        stroke-width: 0px;
      }
    </style>
  </defs>
  <path class="cls-2" d="m111.07,180.7c0,1.3,1,2.3,2.3,2.3s2.3-1,2.3-2.3-1-2.3-2.3-2.3c-1.3.1-2.3,1.2-2.3,2.3Z"/>
  <g>
    <g>
      <path class="cls-2" d="m34.87,156.2c-4.4,0-7.1,2.6-7.1,7,0,6.5,6.5,11.7,14.5,11.7,0,0,36.8-.3,37.5-.6-.5-.4-39.4-17-39.4-17-1.8-.7-3.7-1.1-5.5-1.1Z"/>
      <path class="cls-2" d="m39.57,16.7c-6.5,0-11.7,6.5-11.7,14.5l.6,37.5,17-39.4c1.6-3.9,1.7-7.6,0-10-1.3-1.6-3.3-2.6-5.9-2.6Z"/>
      <path class="cls-2" d="m218.47,85.2c-3.2,0-6.3,2.8-8.1,7.2l-15.9,39.8,26.9-26.1c2.8-2.8,4.4-6.3,4.8-9.8.3-3.4-.7-6.5-2.9-8.7-1.4-1.6-3.1-2.4-4.8-2.4Z"/>
      <path class="cls-2" d="m8.27,85.2c-1.7,0-3.4.8-4.9,2.3-2.2,2.2-3.2,5.3-2.9,8.7.3,3.6,2,7,4.8,9.8l26.9,26.2-15.8-39.8c-1.8-4.4-4.9-7.2-8.1-7.2Z"/>
      <path class="cls-2" d="m146.87,174.3l37.5.6c8.1,0,14.5-5.3,14.5-11.7,0-4.4-2.7-7-7.1-7-1.8,0-3.6.4-5.6,1.3l-39.3,16.8Z"/>
      <path class="cls-2" d="m187.07,16.7c-2.6,0-4.6.9-5.8,2.7-1.6,2.4-1.6,6,0,10l17,39.4.6-37.5c0-8-5.2-14.6-11.8-14.6Z"/>
      <path class="cls-2" d="m14.07,123.3c-2.7,0-4.8,1.6-6,4.4-1.2,2.9-.9,6.1.7,9.1,1.7,3.2,4.6,5.8,8.2,7.2,0,0,34.2,13.8,34.8,13.8-.3-.6-29.9-30.7-29.9-30.7-2.5-2.4-5.3-3.8-7.8-3.8Z"/>
      <path class="cls-2" d="m212.67,123.3c-2.6,0-5.4,1.4-8,3.9l-29.9,30.7,34.8-13.8c3.6-1.5,6.5-4.1,8.2-7.2,1.6-3.1,1.8-6.4.7-9.1-1-2.9-3.2-4.5-5.8-4.5Z"/>
      <path class="cls-2" d="m162.97,0c-1.1,0-2.3,1.3-3.2,3.4-2.5,6.1.2,16.3,6,22l16.2,15.4-13.8-34.8c-1.8-4.5-3.9-6-5.2-6Z"/>
      <path class="cls-2" d="m63.67,0c-1.3,0-3.3,1.6-5.1,6l-13.9,34.7,16.2-15.3c5.8-5.8,8.5-15.9,6-22-1-2.2-2.1-3.4-3.2-3.4Z"/>
      <path class="cls-2" d="m17.57,47.9c-1,0-2,.3-3.1.7-2.9,1.2-5,3.7-6,7-1.1,3.4-.9,7.2.6,10.8l14.9,34.4.6-42.8c0-6.1-2.8-10.1-7-10.1Z"/>
      <path class="cls-2" d="m209.17,47.9c-4.2,0-7,4.1-7,10.2l.6,42.8,14.9-34.4c1.5-3.6,1.8-7.5.7-10.9-1-3.4-3.2-5.8-6-7-1.2-.6-2.3-.7-3.2-.7Z"/>
    </g>
    <g>
      <path class="cls-2" d="m56.27,46.7h-4.8v-2.4h12.5v2.4h-4.8v12.3h-2.9v-12.3Z"/>
      <path class="cls-2" d="m66.37,44.3h4.8c1.7,0,3,.4,4,1.3,1,.8,1.4,2,1.4,3.4,0,.8-.3,1.7-.7,2.3-.4.7-1,1.3-1.8,1.7l3.9,6h-3.4l-3.2-5.3h-2.4v5.3h-2.9v-14.7h.3Zm2.9,7.1h1.4c2,0,3-.8,3-2.4,0-.8-.3-1.3-.8-1.8s-1.3-.6-2.2-.6h-1.6l.2,4.8h0Z"/>
      <path class="cls-2" d="m85.07,44.3h3.2l5.9,14.8h-3.2l-1.5-3.9h-6l-1.4,3.9h-2.9l5.9-14.8Zm3.6,8.5l-2.2-6-2.2,6h4.4Z"/>
      <path class="cls-2" d="m92.87,44.3h3.3l3.9,11.6,3.9-11.6h3.2l-5.6,14.8h-3.1l-5.6-14.8Z"/>
      <path class="cls-2" d="m109.37,44.3h9.7v2.5h-6.9v3.5h6.1v2.4h-6.1v3.8h7.1v2.5h-10.1l.2-14.7h0Z"/>
      <path class="cls-2" d="m122.47,44.3h3v12.3h6.7v2.4h-9.7v-14.7h0Z"/>
      <path class="cls-2" d="m134.57,44.3h9.7v2.5h-6.9v3.5h6.1v2.4h-6.1v3.8h7.1v2.5h-10l.1-14.7h0Z"/>
      <path class="cls-2" d="m147.67,44.3h4.8c1.7,0,3,.4,4,1.3,1,.8,1.4,2,1.4,3.4,0,.8-.3,1.7-.7,2.3-.4.7-1,1.3-1.8,1.7l3.9,6h-3.4l-3.2-5.3h-2.4v5.3h-2.8v-14.7h.2Zm2.8,7.1h1.4c2,0,3-.8,3-2.4,0-.8-.3-1.3-.8-1.8-.5-.4-1.3-.6-2.2-.6h-1.4v4.8h0Z"/>
      <path class="cls-2" d="m165.77,59.4c-.9,0-1.8-.1-2.8-.3-.9-.3-1.7-.5-2.2-.9l.3-2.5c.6.4,1.3.8,2.2.9.8.3,1.6.3,2.4.3.9,0,1.6-.2,2.1-.5.5-.3.8-.8.8-1.4,0-.5-.2-.9-.6-1.3-.4-.3-1.2-.7-2.3-1-1.6-.5-2.8-1.1-3.4-1.8-.7-.7-1-1.6-1-2.8,0-.8.3-1.6.7-2.2.4-.7,1-1.1,1.8-1.5.8-.3,1.8-.5,2.9-.5.8,0,1.5.1,2.3.3s1.5.4,2.1.8l-.4,2.4c-.6-.3-1.2-.6-1.9-.8s-1.3-.3-2-.3c-.8,0-1.4.2-1.8.4-.4.3-.7.8-.7,1.3,0,.3.1.7.3.8.2.2.4.4.8.6.3.2.9.4,1.6.6,1.8.6,3,1.2,3.8,1.9.8.8,1.1,1.7,1.1,2.9,0,1.3-.5,2.4-1.5,3.2-1.4,1-2.8,1.4-4.6,1.4Z"/>
      <path class="cls-2" d="m172.87,49c.5-1.5.8-3.1.8-4.9h2.5c0,.8-.2,1.7-.4,2.5-.3.8-.6,1.6-.9,2.3l-2,.1h0Z"/>
    </g>
    <g>
      <path class="cls-2" d="m63.87,88.2c-2.3,0-4.2-.4-6-1.3s-3.1-2.2-4.1-3.9c-1-1.7-1.5-3.6-1.5-5.9,0-2.1.5-4,1.4-5.8.9-1.7,2.3-3,4.1-4s3.9-1.5,6.2-1.5c1.2,0,2.3.2,3.6.5s2.3.8,3.2,1.3l-.7,3.7c-2.1-1-4.1-1.5-6-1.5-1.4,0-2.7.3-3.8.9s-1.9,1.4-2.6,2.5c-.7,1.1-.9,2.4-.9,3.9,0,2.3.7,4,2,5.3s3.1,1.9,5.4,1.9c1,0,2-.2,3.2-.4,1.1-.3,2.2-.7,3.2-1.2l.4,3.8c-1,.6-2.1,1-3.4,1.3-1.1.2-2.3.4-3.7.4Z"/>
      <path class="cls-2" d="m75.27,66.3h4.4v8.7h10.4v-8.7h4.4v21.7h-4.4v-9.4h-10.4v9.4h-4.4s0-21.7,0-21.7Z"/>
      <path class="cls-2" d="m109.87,88.4c-2.1,0-4-.5-5.7-1.4s-3.1-2.3-4.1-4c-1-1.8-1.6-3.7-1.6-5.9,0-2,.5-3.9,1.4-5.6s2.3-3.1,4-4.1,3.7-1.6,6-1.6c2.1,0,4,.5,5.8,1.4s3.1,2.3,4.1,4c1,1.8,1.6,3.7,1.6,5.9,0,2-.5,3.9-1.4,5.6s-2.3,3.1-4.1,4.1c-1.8,1-3.7,1.6-6,1.6Zm0-3.9c1.3,0,2.4-.3,3.5-.9s1.9-1.5,2.5-2.6c.6-1.2.9-2.4.9-3.9,0-1.3-.3-2.6-.8-3.8-.6-1.1-1.4-2-2.4-2.7s-2.3-1-3.7-1c-1.3,0-2.4.3-3.5.9-1,.6-1.8,1.5-2.5,2.6-.6,1.1-.9,2.4-.9,3.9,0,1.3.3,2.6.8,3.8.6,1.1,1.3,2,2.4,2.7,1.2.6,2.4,1,3.7,1Z"/>
      <path class="cls-2" d="m125.37,66.3h4.4v21.7h-4.4v-21.7Z"/>
      <path class="cls-2" d="m145.27,88.2c-2.3,0-4.2-.4-6-1.3s-3.1-2.2-4.1-3.9c-1-1.7-1.5-3.6-1.5-5.9,0-2.1.5-4,1.4-5.8.9-1.7,2.3-3,4.1-4s3.9-1.5,6.2-1.5c1.2,0,2.3.2,3.6.5s2.3.8,3.2,1.3l-.7,3.7c-2.1-1-4.1-1.5-6-1.5-1.4,0-2.7.3-3.8.9s-1.9,1.4-2.6,2.5-.9,2.4-.9,3.9c0,2.3.7,4,2,5.3s3.1,1.9,5.4,1.9c1,0,2-.2,3.2-.4,1.1-.3,2.2-.7,3.2-1.2l.4,3.8c-1,.6-2.1,1-3.4,1.3-1.1.2-2.3.4-3.7.4Z"/>
      <path class="cls-2" d="m156.67,66.3h14.4v3.7h-10.1v5.2h8.9v3.6h-9v5.5h10.5v3.7h-14.7v-21.7h0Z"/>
    </g>
  </g>
  <path class="cls-2" d="m84.27,130.1c-2.5,0-4.6,2.1-4.6,4.6s2.1,4.6,4.6,4.6,4.6-2.1,4.6-4.6c-.1-2.6-2.2-4.6-4.6-4.6"/>
  <path class="cls-2" d="m140.77,130.1c-2.5,0-4.6,2.1-4.6,4.6s2.1,4.6,4.6,4.6,4.6-2.1,4.6-4.6c0-2.6-2.1-4.6-4.6-4.6"/>
  <g>
    <path class="cls-2" d="m84.27,120.8c-7.6,0-13.6,6.1-13.6,13.6s6.1,13.6,13.6,13.6,13.6-6.1,13.6-13.6-6.1-13.6-13.6-13.6m0,23.2c-5.2,0-9.4-4.2-9.4-9.4s4.2-9.4,9.4-9.4,9.4,4.2,9.4,9.4c.1,5.2-4.2,9.4-9.4,9.4m84.9-37.2h-18.8c-9.6-6.5-22.7-10.5-37.7-10.5s-29,4-38.5,10.5h-18c2.9,3.4,5.1,8,5.6,11.2-3.3,4.6-5.4,10.3-5.4,16.5,0,15.5,12.6,28.1,28.1,28.1,8.8,0,16.7-4,21.9-10.4,2.1,2.5,5.6,7.4,6.3,8.8,0,0,4-6,6.3-8.8,5.2,6.4,13,10.4,21.8,10.4,15.5,0,28.1-12.6,28.1-28.1,0-6.2-2-11.9-5.4-16.5.6-3,2.8-7.7,5.7-11.2m-84.6,50.4c-12.5,0-22.7-10.1-22.7-22.7s10.1-22.7,22.7-22.7,22.7,10.1,22.7,22.7-10.2,22.7-22.7,22.7m.1-50.8c8-3.5,18-5.4,28-5.4s19.2,1.9,27.3,5.4c-15.1.5-27.3,12.8-27.3,28,0-15.3-12.5-27.9-28-28m56.2,50.8c-12.6,0-22.7-10.1-22.7-22.7s10.1-22.7,22.7-22.7,22.7,10.1,22.7,22.7-10.3,22.7-22.7,22.7m0-36.4c-7.6,0-13.6,6.1-13.6,13.6s6.1,13.6,13.6,13.6,13.6-6.1,13.6-13.6-6.1-13.6-13.6-13.6m0,23.1c-5.2,0-9.4-4.2-9.4-9.4s4.2-9.4,9.4-9.4,9.4,4.2,9.4,9.4-4.2,9.4-9.4,9.4"/>
    <path class="cls-2" d="m175.57,111.4h-.9v-3.7h1.4c.7,0,1.5.1,1.5,1.1,0,.5-.2.9-.8,1l.9,1.7h-1l-.8-1.6h-.3v1.5h0Zm0-2.1h.7c.3-.1.3-.3.3-.5,0-.3-.1-.4-.3-.5h-.8l.1,1h0Z"/>
    <path class="cls-2" d="m176.17,106.2c-1.9,0-3.4,1.6-3.4,3.4s1.6,3.4,3.4,3.4c1.9,0,3.4-1.5,3.4-3.4-.1-1.8-1.6-3.4-3.4-3.4m0,6.2c-1.6,0-2.7-1.3-2.7-2.7,0-1.6,1.3-2.7,2.7-2.7,1.6,0,2.7,1.3,2.7,2.7,0,1.5-1.3,2.7-2.7,2.7"/>
  </g>
  <g>
    <path class="cls-2" d="m35.67,188.7v-3h-5v-4.6l-3.8,1.2v3.4h-2.9v3h2.9v9.9c0,4.4,1.8,6.7,5.3,6.7,1.3,0,2.4-.2,3.3-.5h.1l-.2-3-.2.1c-.5.2-1.2.2-2.1.2s-1.5-.3-1.9-.8c-.4-.6-.6-1.5-.6-2.7v-9.6l5.1-.3h0Z"/>
    <path class="cls-2" d="m49.07,185.3c-.4-.1-.8-.1-1-.1-1.2,0-2.3.4-3.3,1.2-.9.6-1.5,1.5-2,2.5l-.2-3.2h-3.5v.2c.1,1.6.2,3.5.2,6v13h3.9v-10.1c0-1.9.5-3.2,1.4-4.3.9-1,2-1.5,3.2-1.5.5,0,.9,0,1.2.1h.2l-.1-3.8h0Z"/>
    <rect class="cls-2" x="52.57" y="185.7" width="3.9" height="19.1"/>
    <path class="cls-2" d="m54.57,182.5c.8,0,1.4-.2,1.8-.7.5-.5.7-1.1.7-1.8s-.2-1.3-.7-1.8-1.1-.7-1.8-.7-1.4.2-1.8.7c-.5.5-.7,1.1-.7,1.8s.2,1.3.7,1.8c.5.4,1.1.7,1.8.7"/>
    <path class="cls-2" d="m75.67,187.8c-1.6-1.9-3.5-2.7-5.8-2.7-2.8,0-5,1.1-6.5,3.2l-.2-2.8h-3.6v.3c.1,1.6.1,3.6.1,6.2v20.6h3.9v-9.8c.6.7,1.3,1.3,2.1,1.8,1.1.5,2.3.8,3.4.8,2.5,0,4.6-1,6.2-2.8,1.7-1.9,2.5-4.4,2.5-7.6.3-3-.5-5.3-2.1-7.2m-9.7,1.6c.9-.6,1.8-.9,2.7-.9,1.6,0,2.8.6,3.7,1.9,1,1.3,1.5,2.8,1.5,4.7,0,2.2-.5,3.8-1.5,5.1s-2.3,1.9-3.9,1.9c-1.4,0-2.5-.5-3.4-1.5-1-1-1.5-2.2-1.5-3.6v-3.1c0-.6.2-1.3.5-2.2.6-.9,1.2-1.7,1.9-2.3"/>
  </g>
  <g>
    <path class="cls-2" d="m198.77,189.3h-.9v-3.7h1.4c.7,0,1.5.1,1.5,1.1,0,.5-.2.8-.8,1l.9,1.7h-1l-.8-1.6h-.3v1.5h0Zm0-2.2h.7c.3-.1.3-.3.3-.5,0-.3-.1-.4-.3-.5h-.8l.1,1h0Z"/>
    <path class="cls-2" d="m199.37,184.1c-1.9,0-3.4,1.5-3.4,3.4s1.6,3.4,3.4,3.4c1.9,0,3.4-1.6,3.4-3.4,0-1.8-1.5-3.4-3.4-3.4m0,6.2c-1.6,0-2.7-1.3-2.7-2.7,0-1.6,1.3-2.7,2.7-2.7,1.6,0,2.7,1.3,2.7,2.7,0,1.4-1.1,2.7-2.7,2.7"/>
    <path class="cls-2" d="m95.67,204.6c-.2-1.1-.3-2.6-.3-4.5v-6.9c0-2.5-.7-4.6-2-6s-3.2-2.1-5.7-2.1-4.7.6-6.6,1.8l-.1.1.9,2.6.2-.1c1.5-1,3.1-1.4,5.1-1.4,1.4,0,2.5.4,3.1,1.1.7.7,1.1,1.8,1.1,3v.2c-3.7,0-6.7.6-8.6,1.9-2.1,1.3-3,3-3,5.4,0,1.6.6,2.8,1.7,3.9s2.5,1.7,4.4,1.7c2.5,0,4.4-.9,5.9-2.6l.4,2.2h3.6l-.1-.3Zm-5.5-3.6c-.9.8-2.1,1.3-3.3,1.3-.9,0-1.7-.3-2.3-.8-.6-.5-.9-1.3-.9-2.3,0-1.2.6-2.2,1.7-2.8,1.2-.7,3.1-1.1,6.1-1.1v2.9c0,1-.5,2-1.3,2.8"/>
    <path class="cls-2" d="m115.67,204.9v-.3c-.1-1.2-.2-2.8-.2-4.9v-23h-4v10.7c-.5-.6-1.2-1.2-2-1.6-1-.6-2.3-.8-3.5-.8-2.5,0-4.5,1-6.1,2.9-1.7,2-2.5,4.4-2.5,7.5,0,2.8.8,5.2,2.4,7,1.6,1.9,3.5,2.7,5.9,2.7,1.5,0,2.7-.3,3.9-1,.9-.6,1.7-1.3,2.3-2.2l.2,2.7,3.6.3h0Zm-4.2-11.4v3c0,1.7-.5,2.9-1.5,3.9s-2.1,1.5-3.3,1.5c-1.7,0-2.9-.6-3.8-1.9s-1.4-2.8-1.4-4.8c0-2.1.5-3.7,1.5-5s2.3-1.9,3.8-1.9c1.3,0,2.5.5,3.3,1.4.9,1.1,1.4,2.3,1.4,3.8"/>
    <path class="cls-2" d="m131.77,185.7s-4.9,10-5.3,11.2c-.5-1.4-5.3-11.2-5.3-11.2h-4.3l9.6,19.1,9.4-19.1h-4.1Z"/>
    <rect class="cls-2" x="137.87" y="185.7" width="3.9" height="19.1"/>
    <path class="cls-2" d="m139.87,182.5c.8,0,1.4-.2,1.8-.7.5-.5.7-1.1.7-1.8s-.2-1.3-.7-1.8-1.1-.7-1.8-.7-1.4.2-1.8.7c-.5.5-.7,1.1-.7,1.8s.2,1.3.7,1.8c.5.4,1.1.7,1.8.7"/>
    <path class="cls-2" d="m157.37,195.9c-.8-.9-2.2-1.7-4-2.4-1.5-.5-2.5-1-2.9-1.5-.5-.4-.7-1-.7-1.6,0-.7.3-1.3.8-1.7s1.3-.7,2.2-.7c1.4,0,2.6.4,4,1.1l.2.1,1-2.9-.1-.1c-1.4-.8-3-1.2-4.9-1.2-2.1,0-3.7.6-5,1.7-1.3,1.1-1.9,2.5-1.9,4.1,0,2.5,1.8,4.3,5.3,5.5,1.3.4,2.2.9,2.7,1.4s.8,1.1.8,1.9-.3,1.4-.9,1.9-1.5.7-2.6.7c-1.6,0-3.1-.5-4.7-1.4l-.2-.1-1,3,.1.1c1.7.9,3.5,1.4,5.6,1.4,2.3,0,4.1-.6,5.4-1.6,1.4-1.1,2.1-2.5,2.1-4.3-.1-1.4-.5-2.5-1.3-3.4"/>
    <path class="cls-2" d="m176.67,187.9c-1.7-1.9-3.9-2.7-6.6-2.7s-5,1-6.8,2.7c-1.8,1.9-2.6,4.3-2.6,7.4,0,2.9.9,5.3,2.5,7.1,1.8,1.9,3.9,2.7,6.6,2.7,1.7,0,3.3-.4,4.8-1.3,1.5-.8,2.6-2.1,3.4-3.5.8-1.6,1.2-3.3,1.2-5.4,0-2.8-.8-5.1-2.5-7m-6.9,14.3c-1.6,0-2.8-.7-3.8-2s-1.6-3-1.6-5c0-2.1.5-3.7,1.5-5.1,1-1.3,2.4-2,4-2,1.7,0,2.9.7,3.9,2,1,1.4,1.5,3,1.5,4.9,0,2.1-.5,3.8-1.6,5.1-1,1.4-2.3,2.1-3.9,2.1"/>
    <path class="cls-2" d="m192.37,185.3c-.4-.1-.8-.1-1-.1-1.2,0-2.3.4-3.3,1.2-.9.6-1.5,1.5-2,2.5l-.2-3.2h-3.5v.2c.1,1.6.2,3.5.2,6v13h3.9v-10.1c0-1.9.5-3.2,1.4-4.3.9-1,2-1.5,3.2-1.5.5,0,.9,0,1.2.1h.2l-.1-3.8h0Z"/>
  </g>
  <text class="cls-1" transform="translate(84.11 255.65)"><tspan x="0" y="0">2022</tspan></text>
</svg>